<?xml version="1.0" standalone="no"?><!DOCTYPE svg PUBLIC "-//W3C//DTD SVG 1.1//EN" "http://www.w3.org/Graphics/SVG/1.1/DTD/svg11.dtd"><svg t="1649149545064" class="icon" viewBox="0 0 1024 1024" version="1.1" xmlns="http://www.w3.org/2000/svg" p-id="11386" xmlns:xlink="http://www.w3.org/1999/xlink" width="200" height="200"><defs><style type="text/css">@font-face { font-family: feedback-iconfont; src: url("//at.alicdn.com/t/font_1031158_u69w8yhxdu.woff2?t=1630033759944") format("woff2"), url("//at.alicdn.com/t/font_1031158_u69w8yhxdu.woff?t=1630033759944") format("woff"), url("//at.alicdn.com/t/font_1031158_u69w8yhxdu.ttf?t=1630033759944") format("truetype"); }
</style></defs><path d="M193.5 399.99c-13.54 0-24.5-10.97-24.5-24.5V193.5c0-13.53 10.96-24.5 24.5-24.5h182c13.54 0 24.5 10.97 24.5 24.5S389.05 218 375.5 218H218v157.49c0 13.53-10.96 24.5-24.5 24.5zM830.5 399.99c-13.54 0-24.5-10.97-24.5-24.5V218H648.5c-13.54 0-24.5-10.97-24.5-24.5s10.96-24.5 24.5-24.5h182c13.54 0 24.5 10.97 24.5 24.5v181.99c0 13.53-10.96 24.5-24.5 24.5zM375.5 855h-182c-13.54 0-24.5-10.97-24.5-24.5v-182c0-13.53 10.96-24.5 24.5-24.5s24.5 10.97 24.5 24.5V806h157.5c13.54 0 24.5 10.97 24.5 24.5S389.05 855 375.5 855zM830.5 855h-182c-13.54 0-24.5-10.97-24.5-24.5s10.96-24.5 24.5-24.5H806V648.5c0-13.53 10.96-24.5 24.5-24.5s24.5 10.97 24.5 24.5v182c0 13.53-10.96 24.5-24.5 24.5z" p-id="11387" fill="#ffffff"></path><path d="M352.75 684.37c-13.54 0-24.5-10.97-24.5-24.5V364.11c0-13.53 10.96-24.5 24.5-24.5s24.5 10.97 24.5 24.5v295.76c0 13.53-10.96 24.5-24.5 24.5zM671.25 684.37c-13.54 0-24.5-10.97-24.5-24.5V364.11c0-13.53 10.96-24.5 24.5-24.5s24.5 10.97 24.5 24.5v295.76c0 13.53-10.96 24.5-24.5 24.5zM512 684.37c-13.54 0-24.5-10.97-24.5-24.5V364.11c0-13.53 10.96-24.5 24.5-24.5s24.5 10.97 24.5 24.5v295.76c0 13.53-10.96 24.5-24.5 24.5z" p-id="11388" fill="#ffffff"></path></svg>