<?xml version="1.0" standalone="no"?><!DOCTYPE svg PUBLIC "-//W3C//DTD SVG 1.1//EN" "http://www.w3.org/Graphics/SVG/1.1/DTD/svg11.dtd"><svg t="1649148879422" class="icon" viewBox="0 0 1282 1024" version="1.1" xmlns="http://www.w3.org/2000/svg" p-id="2359" xmlns:xlink="http://www.w3.org/1999/xlink" width="250.390625" height="200"><defs><style type="text/css">@font-face { font-family: feedback-iconfont; src: url("//at.alicdn.com/t/font_1031158_u69w8yhxdu.woff2?t=1630033759944") format("woff2"), url("//at.alicdn.com/t/font_1031158_u69w8yhxdu.woff?t=1630033759944") format("woff"), url("//at.alicdn.com/t/font_1031158_u69w8yhxdu.ttf?t=1630033759944") format("truetype"); }
</style></defs><path d="M1255.69388 1023.926568a109.003041 109.003041 0 0 0 26.435661-25.804142v25.804142z m-1255.693878 0v-24.834835a106.006999 106.006999 0 0 0 25.64259 24.834835z m0-1023.926568h24.967012a107.75469 107.75469 0 0 0-24.967012 24.511732z m1282.129539 24.306121A107.093798 107.093798 0 0 0 1257.412198 0h24.717343zM85.857153 1022.134817c-45.895244 0-83.536688-36.216855-85.813092-82.508634V83.830417A86.180254 86.180254 0 0 1 85.857153 1.395215h1110.753026a85.431243 85.431243 0 0 1 85.255005 86.650221v847.262923c0 47.863232-38.596064 86.811772-86.048075 86.811772z m-15.817337-74.166714h1141.59463V734.779187H835.822158c-128.844472 0-233.661867-104.112443-233.661867-232.046355 0-127.537376 104.817394-231.297344 233.661867-231.297344h375.812288v-198.267454H70.025129z m764.989272-604.025472a155.54449 155.54449 0 0 0 0 311.088979h373.447765V343.942631z" p-id="2360" fill="#ffffff"></path><path d="M835.029088 561.87528a62.358786 62.358786 0 1 1 62.358786-62.3441 62.417532 62.417532 0 0 1-62.358786 62.3441z" p-id="2361" fill="#ffffff"></path></svg>